<svg xmlns="http://www.w3.org/2000/svg" width="50" height="50" fill="none" viewBox="0 0 50 50"><g clip-path="url(#a)"><path fill="#121113" d="M1 11C1 5.477 5.477 1 11 1h28c5.523 0 10 4.477 10 10v28c0 5.523-4.477 10-10 10H11C5.477 49 1 44.523 1 39z"/><path stroke="#fff" stroke-width="1.5" d="M33.774 7H16.226m17.548 0L42 23.607M33.774 7s-3.226 5.149-4.082 6.014M33.774 65H16.226m17.548 0L42 23.607M33.774 65l-2.645-1.66M16.226 65 8 23.607M16.226 65l2.645-1.66M16.226 7 8 23.607M16.226 7l4.082 6.014M42 23.607l-5.687 2.85M8 23.606l5.687 2.85m6.621-13.443h9.384m-9.384 0-6.62 13.442m16.004-13.442c2.195 5.62 6.62 13.442 6.62 13.442m0 0L31.13 63.34M13.687 26.457l5.184 36.882m0 0h12.258"/></g><path stroke="#fff" stroke-opacity="0.1" d="M11 .5C5.201.5.5 5.201.5 11v28c0 5.799 4.701 10.5 10.5 10.5h28c5.799 0 10.5-4.701 10.5-10.5V11C49.5 5.201 44.799.5 39 .5z"/><defs><clipPath id="a"><path fill="#fff" d="M1 11C1 5.477 5.477 1 11 1h28c5.523 0 10 4.477 10 10v28c0 5.523-4.477 10-10 10H11C5.477 49 1 44.523 1 39z"/></clipPath></defs></svg>